<svg viewBox="0 0 44 33" xmlns="http://www.w3.org/2000/svg">
<path d="M44 13.5689C44 13.4371 44 13.2395 44 13.1078C44 12.7784 44 12.4491 43.9346 12.1856C43.9346 12.0539 43.8693 11.9222 43.8693 11.7904C43.8039 11.4611 43.8039 11.1317 43.7385 10.8683C43.7385 10.7365 43.6731 10.6048 43.6731 10.4731C43.6077 10.1437 43.5424 9.88024 43.4116 9.5509C43.3463 9.41916 43.3462 9.35329 43.2809 9.22156C43.1501 8.89222 43.0847 8.62874 42.954 8.2994C42.8886 8.16767 42.8232 8.1018 42.8232 7.97006C42.6925 7.70659 42.5617 7.37725 42.431 7.11377C42.3656 6.98204 42.3002 6.91617 42.2349 6.78443C42.1041 6.52096 41.908 6.25749 41.7119 5.99401C41.6465 5.92815 41.5811 5.79641 41.5157 5.73054C41.3196 5.46707 41.1235 5.20359 40.9274 4.94012C40.862 4.87425 40.7966 4.80838 40.7312 4.67665C40.5351 4.41318 40.339 4.21557 40.0775 3.9521C40.0121 3.88623 39.9467 3.82036 39.816 3.75449C39.5545 3.55689 39.3584 3.29341 39.0969 3.09581C39.0315 3.02994 38.9007 2.96407 38.8354 2.8982C38.5739 2.7006 38.3123 2.50299 38.0508 2.30539C37.9855 2.23952 37.8547 2.17365 37.7893 2.17365C37.5278 1.97605 37.2663 1.84431 36.9395 1.64671C36.8741 1.58084 36.7433 1.58084 36.678 1.51497C36.4165 1.38324 36.0896 1.18563 35.7627 1.05389C35.632 0.988025 35.5666 0.988025 35.4358 0.922157C35.109 0.79042 34.8475 0.658684 34.5206 0.592815C34.3898 0.526947 34.2591 0.526948 34.1283 0.526948C33.8014 0.46108 33.54 0.329342 33.2131 0.263474C33.017 0.197606 32.8862 0.197607 32.6901 0.197607C32.4286 0.131739 32.1671 0.131738 31.8402 0.0658698C31.5133 1.50662e-06 31.1864 0 30.8596 0C30.7288 0 30.5981 0 30.4673 0C30.0751 0 29.6828 1.50662e-06 29.2906 0.0658698C29.1598 0.0658698 29.0291 0.0658688 28.8983 0.131737C28.5714 0.197605 28.3099 0.197606 28.0484 0.263474C27.7869 0.329342 27.5254 0.39521 27.2639 0.461078C27.1332 0.526947 27.0024 0.526947 26.8717 0.592815C21.8378 1.97605 17.9806 6.25749 17.1961 11.5269C17.1961 11.6587 17.1307 11.7246 17.1307 11.8563C17.1307 12.0539 17.0654 12.2515 17.0654 12.4491C17.0654 12.8443 17 13.1737 17 13.5689C17 13.9641 17 14.3593 17.0654 14.7545C17.0654 14.8862 17.0654 15.018 17.1307 15.1497C17.1307 15.4132 17.1961 15.6766 17.2615 15.9401C17.5884 17.9162 18.3729 19.6946 19.4189 21.2755C19.615 21.5389 19.8111 21.8024 20.0073 22.0659C20.0726 22.1976 20.2034 22.3293 20.3341 22.3952C20.5303 22.5928 20.7264 22.8563 20.9225 23.0539C20.9879 23.1198 21.0533 23.1856 21.1186 23.2515C21.3801 23.515 21.6417 23.7784 21.9685 24.0419C22.0339 24.1078 22.0339 24.1078 22.0993 24.1737C22.2954 24.3054 22.4915 24.503 22.6876 24.6347C22.8838 24.7665 23.0145 24.8982 23.2107 24.9641C23.799 25.3593 24.4528 25.6886 25.1065 26.018C26.414 26.6108 27.8523 27.006 29.4213 27.1377L25.4334 31.1557L23.5375 33H30.2712L31.3826 31.8802L39.1622 24.0419C40.7966 22.6587 42.1041 20.9461 42.8886 18.9701C42.954 18.9042 42.954 18.7725 43.0194 18.7066C43.0847 18.6407 43.0847 18.509 43.0847 18.4431C43.1501 18.1796 43.2809 17.982 43.3462 17.7186C43.3462 17.6527 43.4116 17.5868 43.4116 17.521C43.477 17.1916 43.6077 16.8623 43.6731 16.5988C43.6731 16.4671 43.7385 16.3353 43.7385 16.2036C43.8039 15.8084 43.8692 15.3473 43.9346 14.9521C44 14.5569 44 14.0958 44 13.7006C44 13.6347 44 13.6347 44 13.5689ZM39.2276 13.7006C39.1622 18.509 35.3051 22.3293 30.5327 22.3293C29.8789 22.3293 29.2252 22.2635 28.6368 22.1317C28.5714 22.1317 28.5061 22.1317 28.4407 22.0659C28.1138 22 27.7869 21.8683 27.5254 21.8024C25.6949 21.1437 24.1259 19.8263 23.1453 18.1796C23.0799 18.1138 23.0799 18.0479 23.0145 17.982C22.8838 17.7186 22.753 17.4551 22.6223 17.2575C22.6223 17.2575 22.6223 17.2575 22.6223 17.1916C22.5569 17.0599 22.5569 16.994 22.4915 16.8623C22.4915 16.7964 22.4915 16.7964 22.4262 16.7305C22.0339 15.7425 21.8378 14.7545 21.8378 13.6347V13.5689C21.8378 13.4371 21.8378 13.3713 21.8378 13.3054C22.0339 8.62874 25.8257 4.87425 30.5327 4.80839C35.3051 4.80839 39.2276 8.76048 39.2276 13.5689C39.2276 13.6347 39.2276 13.7006 39.2276 13.7006Z" fill="black" fill-opacity="0.87"/>
<path d="M18.1115 27.1142C17.2914 26.3868 16.5396 25.5932 15.8561 24.7335C15.241 24.006 14.7626 23.2124 14.2842 22.3527C14.2158 22.2204 14.1475 22.022 14.0108 21.8898C12.6439 19.3106 11.9604 16.4669 11.9604 13.5571C11.9604 10.7134 12.6439 7.86974 14.0108 5.29058C14.0791 5.15832 14.1475 4.95992 14.2842 4.82765C14.2842 4.82765 14.2842 4.82766 14.2842 4.76152C14.7626 3.96794 15.241 3.17435 15.8561 2.44689L17.7014 0.462926L18.1115 0H15.3093H13.1223C12.4388 0 11.7554 0.132263 11.0719 0.264528C10.9352 0.264528 10.7986 0.330661 10.6619 0.330661C10.5252 0.396794 10.3885 0.396794 10.2518 0.462926C9.29496 0.727455 8.40647 1.05812 7.58633 1.45491C7.38129 1.58717 7.17626 1.65331 6.97122 1.78557C6.15108 2.2485 5.39928 2.77755 4.71583 3.37274C4.03237 3.96793 3.41726 4.56313 2.8705 5.29058C2.39208 5.88577 1.98202 6.48096 1.64029 7.07615C1.57194 7.14229 1.57194 7.27455 1.50359 7.34068C1.43525 7.53908 1.29856 7.67134 1.23022 7.86974C1.16187 8.06813 1.02518 8.26653 0.956835 8.53106C0.956835 8.59719 0.888491 8.66333 0.888491 8.66333C0.546765 9.52305 0.273379 10.4489 0.136689 11.4409C0.136689 11.5731 0.0683443 11.6393 0.0683443 11.7715C0.0683443 11.9699 0 12.1683 0 12.3667C0 12.499 0 12.6313 0 12.7635C0 13.0281 0 13.2265 0 13.491C0 13.7555 0 14.02 0 14.2846C0 14.4168 0 14.5491 0 14.7475C0 14.8798 -1.04389e-06 15.012 0.0683443 15.1443C0.0683443 15.4088 0.136693 15.6733 0.205038 15.9379C0.546765 17.9218 1.36691 19.7074 2.46043 21.2946C2.66547 21.5591 2.8705 21.8236 3.07554 22.0882C3.21223 22.2204 3.28058 22.3527 3.41727 22.485C3.6223 22.6834 3.75899 22.8818 3.96403 23.0802C4.03238 23.1463 4.10072 23.2124 4.16906 23.2786C4.44244 23.5431 4.71583 23.8076 5.05755 24.006C5.1259 24.0721 5.1259 24.0721 5.19424 24.1383C5.39928 24.2705 5.60432 24.4689 5.80935 24.6012C6.01439 24.7335 6.15108 24.8657 6.35612 24.9319C6.97122 25.3287 7.65467 25.6593 8.33813 25.99C9.70503 26.5852 11.2086 26.982 12.8489 27.1142L12.7806 27.1804C12.8489 27.1804 12.8489 27.1804 12.9173 27.1804L6.83453 33H13.6691L14.8309 31.8758L19 27.8417L18.1115 27.1142Z" fill="black" fill-opacity="0.87"/>
</svg>
